<?xml version="1.0" encoding="UTF-8" standalone="no"?>
<!-- Created with Inkscape (http://www.inkscape.org/) -->

<svg
   width="75.184998mm"
   height="75.184998mm"
   viewBox="0 0 75.184998 75.184998"
   version="1.1"
   id="svg1"
   inkscape:version="1.2.2 (b0a8486541, 2022-12-01)"
   sodipodi:docname="Fortran_index.svg"
   xmlns:inkscape="http://www.inkscape.org/namespaces/inkscape"
   xmlns:sodipodi="http://sodipodi.sourceforge.net/DTD/sodipodi-0.dtd"
   xmlns="http://www.w3.org/2000/svg"
   xmlns:svg="http://www.w3.org/2000/svg">
  <sodipodi:namedview
     id="namedview1"
     pagecolor="#505050"
     bordercolor="#eeeeee"
     borderopacity="1"
     inkscape:showpageshadow="0"
     inkscape:pageopacity="0"
     inkscape:pagecheckerboard="0"
     inkscape:deskcolor="#505050"
     inkscape:document-units="mm"
     inkscape:zoom="1.0965303"
     inkscape:cx="578.1874"
     inkscape:cy="160.96226"
     inkscape:window-width="1854"
     inkscape:window-height="1011"
     inkscape:window-x="0"
     inkscape:window-y="0"
     inkscape:window-maximized="1"
     inkscape:current-layer="g2"
     showgrid="false" />
  <defs
     id="defs1">
    <rect
       x="188.20729"
       y="198.59161"
       width="61.949669"
       height="75.208817"
       id="rect286" />
    <rect
       x="196.52901"
       y="201.77637"
       width="75.817986"
       height="62.96138"
       id="rect174" />
  </defs>
  <g
     inkscape:label="Layer 1"
     inkscape:groupmode="layer"
     id="layer1"
     transform="translate(47.895465,-72.13367)">
    <g
       id="g2">
      <g
         id="g3">
        <g
           id="g15"
           transform="matrix(1.0243258,0,0,1.0050276,464.29385,-136.3313)">
          <rect
             style="fill:#c088d0;fill-opacity:1;stroke:none;stroke-width:0.755205;stroke-miterlimit:4;stroke-dasharray:none;stroke-opacity:1"
             id="rect881-8-2-5"
             width="73.399498"
             height="74.808891"
             x="-500.02579"
             y="207.42213"
             ry="14.804082" />
        </g>
        <g
           id="g1"
           transform="translate(-0.79963289,-0.33489833)">
          <path
             d="m -491.09962,274.1601 v -6.40579 h 3.28502 c 2.49114,0 4.03784,-0.28744 4.64009,-0.86232 0.60225,-0.60225 0.90338,-2.05314 0.90338,-4.35265 v -33.21976 c 0,-2.29951 -0.30113,-3.73671 -0.90338,-4.31159 -0.60225,-0.60225 -2.14895,-0.90338 -4.64009,-0.90338 h -3.28502 v -6.36472 h 52.47818 v 23.3647 h -6.48791 c 0,-2.92915 -0.19163,-5.42029 -0.57488,-7.47342 -0.38325,-2.08051 -0.97182,-3.84621 -1.7657,-5.2971 -0.82125,-1.50563 -2.16264,-2.58695 -4.02415,-3.24395 -1.86151,-0.65701 -4.66746,-0.98551 -8.41786,-0.98551 H -470.404 v 17.32848 h 1.4372 c 3.53139,0 5.84459,-0.60225 6.9396,-1.80676 1.09501,-1.23188 1.77939,-4.03783 2.05314,-8.41786 l 6.40578,-0.0411 v 28.29223 l -6.40578,-0.0411 c -0.24638,-4.8454 -0.93076,-7.96617 -2.05314,-9.3623 -1.09501,-1.42351 -3.38083,-2.13527 -6.85748,-2.13527 h -1.51932 v 14.61834 c 0,2.27214 0.30113,3.70934 0.90338,4.31159 0.62963,0.60225 2.2037,0.90338 4.72222,0.90338 h 3.94202 v 6.40579 z"
             id="text3-6"
             style="font-size:84.0965px;font-family:'Clarendon BT';-inkscape-font-specification:'Clarendon BT, Normal';letter-spacing:0.889px;fill:#ffffff;stroke:#000000;stroke-width:1.7;stroke-dasharray:none;stroke-opacity:1"
             aria-label="FT"
             transform="matrix(1.0050227,0,0,1.0050227,455.44144,-135.43896)"
             sodipodi:nodetypes="ccscsscscccccccssccsccccccscscsccc" />
        </g>
        <text
           xml:space="preserve"
           style="font-size:14.1111px;fill:#c088d0;stroke-width:0.264583"
           x="4.2951088"
           y="125.98595"
           id="text116"><tspan
             sodipodi:role="line"
             id="tspan114"
             style="font-size:14.1111px;stroke-width:0.264583"
             x="4.2951088"
             y="125.98595" /></text>
        <text
           xml:space="preserve"
           style="font-size:14.1111px;fill:#c088d0;stroke-width:0.264583"
           x="5.2772398"
           y="128.69388"
           id="text120"><tspan
             sodipodi:role="line"
             id="tspan118"
             style="stroke-width:0.264583"
             x="5.2772398"
             y="128.69388">i</tspan></text>
        <text
           xml:space="preserve"
           transform="matrix(0.26458333,0,0,0.26458333,-47.895467,72.133674)"
           id="text172"
           style="font-size:74.6667px;white-space:pre;shape-inside:url(#rect174);display:inline;fill:#c088d0"><tspan
             x="196.5293"
             y="332.67566"
             id="tspan1154"><tspan
               style="font-size:53.3333px;font-family:'Clarendon BT';-inkscape-font-specification:'Clarendon BT';fill:#fcfce4"
               id="tspan1152">i</tspan></tspan></text>
        <text
           xml:space="preserve"
           style="font-style:normal;font-variant:normal;font-weight:normal;font-stretch:normal;font-size:17.6389px;font-family:'Clarendon BT';-inkscape-font-specification:'Clarendon BT';white-space:pre;inline-size:8.87241;display:inline;fill:#fcfce4;stroke-width:0.264583"
           x="4.4063301"
           y="136.98923"
           id="text180" />
        <g
           aria-label="i"
           transform="matrix(0.38122329,0,0,0.39498515,-68.38698,40.061855)"
           id="text284"
           style="font-size:66.6667px;font-family:'Clarendon BT';-inkscape-font-specification:'Clarendon BT';white-space:pre;shape-inside:url(#rect286);fill:#fcfce4;stroke:#000000;stroke-width:2.77353;stroke-dasharray:none;stroke-opacity:1;image-rendering:auto">
          <path
             d="m 189.86719,257.5762 v -4.45963 h 2.47396 q 2.27865,0 3.02734,-0.71615 0.78125,-0.71615 0.78125,-3.28776 v -14.55079 q 0,-2.57162 -0.78125,-3.25521 -0.74869,-0.71615 -3.02734,-0.71615 h -2.47396 v -4.49219 h 14.42058 v 23.01434 q 0,2.53906 0.7487,3.28776 0.78125,0.71615 3.09245,0.71615 h 2.01823 v 4.45963 z m 4.81771,-40.33205 q 0,-2.08333 1.39974,-3.51563 1.43229,-1.43229 3.51563,-1.43229 2.11588,0 3.54818,1.43229 1.46484,1.4323 1.46484,3.51563 0,2.08334 -1.46484,3.54818 -1.4323,1.46484 -3.54818,1.46484 -2.05079,0 -3.48308,-1.46484 -1.43229,-1.46484 -1.43229,-3.54818 z"
             id="path398"
             style="stroke:#000000;stroke-width:2.77353;stroke-dasharray:none;stroke-opacity:1" />
        </g>
      </g>
    </g>
  </g>
</svg>
