<?xml version="1.0" encoding="UTF-8" standalone="no"?>
<!DOCTYPE svg PUBLIC "-//W3C//DTD SVG 1.1//EN" "http://www.w3.org/Graphics/SVG/1.1/DTD/svg11.dtd">
<svg width="100%" height="100%" viewBox="0 0 1373 483" version="1.1" xmlns="http://www.w3.org/2000/svg" xmlns:xlink="http://www.w3.org/1999/xlink" xml:space="preserve" xmlns:serif="http://www.serif.com/" style="fill-rule:evenodd;clip-rule:evenodd;stroke-linejoin:round;stroke-miterlimit:2;">
    <g transform="matrix(4.16667,0,0,4.16667,0,329.512)">
        <path d="M92.013,25.297L89.764,25.297L89.764,13.469L85.718,13.469L85.718,11.54L96.059,11.54L96.059,13.469L92.013,13.469L92.013,25.297Z" style="fill:rgb(0,115,125);fill-rule:nonzero;"/>
    </g>
    <g transform="matrix(4.16667,0,0,4.16667,0,325.826)">
        <path d="M107.279,26.181L105.058,26.181L105.058,19.783C105.058,18.98 104.897,18.381 104.574,17.986C104.251,17.591 103.738,17.393 103.035,17.393C102.107,17.393 101.425,17.671 100.989,18.226C100.553,18.781 100.335,19.711 100.335,21.016L100.335,26.181L98.124,26.181L98.124,11.54L100.335,11.54L100.335,15.257C100.335,15.853 100.297,16.49 100.222,17.167L100.363,17.167C100.664,16.665 101.083,16.277 101.619,16C102.156,15.724 102.781,15.586 103.496,15.586C106.018,15.586 107.279,16.857 107.279,19.397L107.279,26.181Z" style="fill:rgb(0,115,125);fill-rule:nonzero;"/>
    </g>
    <g transform="matrix(4.16667,0,0,4.16667,0,343.469)">
        <path d="M115.093,22.135C113.475,22.135 112.209,21.663 111.296,20.719C110.384,19.775 109.927,18.475 109.927,16.819C109.927,15.119 110.351,13.783 111.198,12.811C112.045,11.838 113.208,11.352 114.688,11.352C116.062,11.352 117.147,11.769 117.944,12.604C118.741,13.438 119.139,14.586 119.139,16.047L119.139,17.242L112.204,17.242C112.236,18.252 112.509,19.029 113.023,19.571C113.537,20.114 114.262,20.385 115.197,20.385C115.811,20.385 116.384,20.327 116.914,20.211C117.444,20.095 118.013,19.902 118.622,19.632L118.622,21.43C118.082,21.687 117.536,21.869 116.984,21.975C116.432,22.082 115.802,22.135 115.093,22.135ZM114.688,13.027C113.986,13.027 113.423,13.25 113,13.695C112.576,14.141 112.324,14.79 112.242,15.643L116.966,15.643C116.953,14.784 116.746,14.133 116.345,13.69C115.943,13.248 115.391,13.027 114.688,13.027Z" style="fill:rgb(0,115,125);fill-rule:nonzero;"/>
    </g>
    <g transform="matrix(4.16667,0,0,4.16667,0,329.512)">
        <path d="M136.386,15.699C136.386,17.136 135.915,18.237 134.974,19.002C134.033,19.767 132.694,20.15 130.957,20.15L129.526,20.15L129.526,25.297L127.278,25.297L127.278,11.54L131.239,11.54C132.958,11.54 134.245,11.892 135.101,12.594C135.958,13.297 136.386,14.332 136.386,15.699ZM129.526,18.259L130.721,18.259C131.876,18.259 132.722,18.058 133.262,17.656C133.801,17.255 134.071,16.628 134.071,15.775C134.071,14.984 133.83,14.395 133.347,14.006C132.864,13.617 132.111,13.422 131.088,13.422L129.526,13.422L129.526,18.259Z" style="fill:rgb(0,115,125);fill-rule:nonzero;"/>
    </g>
    <g transform="matrix(4.16667,0,0,4.16667,0,343.469)">
        <path d="M148.321,16.725C148.321,18.425 147.885,19.752 147.013,20.705C146.141,21.658 144.927,22.135 143.372,22.135C142.4,22.135 141.54,21.916 140.794,21.477C140.047,21.037 139.473,20.407 139.072,19.585C138.67,18.764 138.47,17.81 138.47,16.725C138.47,15.038 138.902,13.72 139.768,12.773C140.634,11.826 141.854,11.352 143.428,11.352C144.934,11.352 146.126,11.837 147.004,12.806C147.882,13.775 148.321,15.081 148.321,16.725ZM140.747,16.725C140.747,19.127 141.634,20.329 143.409,20.329C145.166,20.329 146.044,19.127 146.044,16.725C146.044,14.348 145.16,13.159 143.391,13.159C142.462,13.159 141.79,13.466 141.372,14.081C140.955,14.696 140.747,15.577 140.747,16.725Z" style="fill:rgb(0,115,125);fill-rule:nonzero;"/>
    </g>
    <g transform="matrix(4.16667,0,0,4.16667,0,342.685)">
        <path d="M156.333,11.54C156.778,11.54 157.145,11.572 157.434,11.634L157.217,13.695C156.904,13.62 156.577,13.582 156.239,13.582C155.354,13.582 154.638,13.871 154.089,14.448C153.54,15.025 153.265,15.775 153.265,16.697L153.265,22.135L151.054,22.135L151.054,11.729L152.786,11.729L153.077,13.563L153.19,13.563C153.535,12.942 153.985,12.45 154.54,12.086C155.095,11.722 155.693,11.54 156.333,11.54Z" style="fill:rgb(0,115,125);fill-rule:nonzero;"/>
    </g>
    <g transform="matrix(4.16667,0,0,4.16667,0,334.608)">
        <path d="M163.432,22.474C163.971,22.474 164.511,22.389 165.05,22.22L165.05,23.885C164.806,23.992 164.49,24.081 164.105,24.153C163.719,24.226 163.319,24.262 162.905,24.262C160.81,24.262 159.762,23.158 159.762,20.95L159.762,15.342L158.341,15.342L158.341,14.363L159.866,13.554L160.618,11.352L161.983,11.352L161.983,13.667L164.947,13.667L164.947,15.342L161.983,15.342L161.983,20.912C161.983,21.445 162.116,21.839 162.383,22.093C162.649,22.347 162.999,22.474 163.432,22.474Z" style="fill:rgb(0,115,125);fill-rule:nonzero;"/>
    </g>
    <g transform="matrix(4.16667,0,0,4.16667,0,343.469)">
        <path d="M173.833,21.947L173.391,20.498L173.316,20.498C172.814,21.132 172.309,21.563 171.801,21.792C171.293,22.021 170.641,22.135 169.844,22.135C168.822,22.135 168.023,21.859 167.449,21.307C166.875,20.755 166.588,19.974 166.588,18.964C166.588,17.892 166.987,17.082 167.783,16.537C168.58,15.991 169.794,15.693 171.425,15.643L173.222,15.586L173.222,15.031C173.222,14.366 173.067,13.869 172.756,13.54C172.446,13.211 171.964,13.046 171.312,13.046C170.779,13.046 170.267,13.124 169.778,13.281C169.289,13.438 168.818,13.623 168.367,13.836L167.652,12.256C168.216,11.961 168.834,11.737 169.505,11.583C170.176,11.429 170.81,11.352 171.406,11.352C172.729,11.352 173.728,11.641 174.403,12.218C175.077,12.795 175.414,13.701 175.414,14.937L175.414,21.947L173.833,21.947ZM170.54,20.442C171.343,20.442 171.988,20.217 172.474,19.769C172.96,19.32 173.203,18.691 173.203,17.882L173.203,16.979L171.867,17.035C170.826,17.073 170.068,17.247 169.595,17.558C169.121,17.868 168.884,18.343 168.884,18.983C168.884,19.447 169.022,19.806 169.298,20.061C169.574,20.315 169.988,20.442 170.54,20.442Z" style="fill:rgb(0,115,125);fill-rule:nonzero;"/>
    </g>
    <g transform="matrix(4.16667,0,0,4.16667,0,326.61)">
        <path d="M184.009,15.398C185.308,15.398 186.319,15.869 187.044,16.81C187.768,17.751 188.131,19.071 188.131,20.771C188.131,22.477 187.764,23.805 187.03,24.756C186.296,25.706 185.276,26.181 183.972,26.181C182.654,26.181 181.632,25.708 180.904,24.76L180.754,24.76L180.349,25.993L178.693,25.993L178.693,11.352L180.904,11.352L180.904,14.834C180.904,15.091 180.892,15.474 180.867,15.982C180.842,16.49 180.823,16.813 180.81,16.951L180.904,16.951C181.607,15.916 182.642,15.398 184.009,15.398ZM183.435,17.205C182.545,17.205 181.903,17.467 181.511,17.991C181.119,18.514 180.917,19.391 180.904,20.62L180.904,20.771C180.904,22.038 181.105,22.955 181.506,23.523C181.908,24.091 182.563,24.375 183.473,24.375C184.257,24.375 184.851,24.064 185.256,23.443C185.661,22.822 185.863,21.925 185.863,20.752C185.863,18.387 185.054,17.205 183.435,17.205Z" style="fill:rgb(0,115,125);fill-rule:nonzero;"/>
    </g>
    <g transform="matrix(4.16667,0,0,4.16667,0,325.826)">
        <rect x="190.892" y="11.541" width="2.211" height="14.641" style="fill:rgb(0,115,125);"/>
    </g>
    <g transform="matrix(4.16667,0,0,4.16667,0,343.469)">
        <path d="M201.002,22.135C199.384,22.135 198.118,21.663 197.205,20.719C196.293,19.775 195.836,18.475 195.836,16.819C195.836,15.119 196.26,13.783 197.107,12.811C197.953,11.838 199.117,11.352 200.597,11.352C201.971,11.352 203.056,11.769 203.853,12.604C204.65,13.438 205.048,14.586 205.048,16.047L205.048,17.242L198.113,17.242C198.145,18.252 198.418,19.029 198.932,19.571C199.446,20.114 200.171,20.385 201.105,20.385C201.72,20.385 202.293,20.327 202.823,20.211C203.353,20.095 203.922,19.902 204.53,19.632L204.53,21.43C203.991,21.687 203.445,21.869 202.893,21.975C202.341,22.082 201.711,22.135 201.002,22.135ZM200.597,13.027C199.895,13.027 199.332,13.25 198.908,13.695C198.485,14.141 198.232,14.79 198.151,15.643L202.874,15.643C202.862,14.784 202.655,14.133 202.253,13.69C201.852,13.248 201.3,13.027 200.597,13.027Z" style="fill:rgb(0,115,125);fill-rule:nonzero;"/>
    </g>
    <g transform="matrix(4.16667,0,0,4.16667,0,329.512)">
        <path d="M222.295,15.699C222.295,17.136 221.824,18.237 220.883,19.002C219.942,19.767 218.603,20.15 216.865,20.15L215.435,20.15L215.435,25.297L213.186,25.297L213.186,11.54L217.148,11.54C218.866,11.54 220.154,11.892 221.01,12.594C221.866,13.297 222.295,14.332 222.295,15.699ZM215.435,18.259L216.63,18.259C217.784,18.259 218.631,18.058 219.171,17.656C219.71,17.255 219.98,16.628 219.98,15.775C219.98,14.984 219.738,14.395 219.255,14.006C218.772,13.617 218.02,13.422 216.997,13.422L215.435,13.422L215.435,18.259Z" style="fill:rgb(0,115,125);fill-rule:nonzero;"/>
    </g>
    <g transform="matrix(4.16667,0,0,4.16667,0,343.469)">
        <path d="M231.511,21.947L231.068,20.498L230.993,20.498C230.491,21.132 229.986,21.563 229.478,21.792C228.97,22.021 228.318,22.135 227.521,22.135C226.499,22.135 225.7,21.859 225.126,21.307C224.553,20.755 224.266,19.974 224.266,18.964C224.266,17.892 224.664,17.082 225.461,16.537C226.257,15.991 227.471,15.693 229.102,15.643L230.899,15.586L230.899,15.031C230.899,14.366 230.744,13.869 230.433,13.54C230.123,13.211 229.641,13.046 228.989,13.046C228.456,13.046 227.945,13.124 227.455,13.281C226.966,13.438 226.496,13.623 226.044,13.836L225.329,12.256C225.893,11.961 226.511,11.737 227.182,11.583C227.854,11.429 228.487,11.352 229.083,11.352C230.407,11.352 231.406,11.641 232.08,12.218C232.754,12.795 233.091,13.701 233.091,14.937L233.091,21.947L231.511,21.947ZM228.217,20.442C229.02,20.442 229.665,20.217 230.151,19.769C230.637,19.32 230.88,18.691 230.88,17.882L230.88,16.979L229.544,17.035C228.503,17.073 227.745,17.247 227.272,17.558C226.798,17.868 226.561,18.343 226.561,18.983C226.561,19.447 226.699,19.806 226.975,20.061C227.251,20.315 227.665,20.442 228.217,20.442Z" style="fill:rgb(0,115,125);fill-rule:nonzero;"/>
    </g>
    <g transform="matrix(4.16667,0,0,4.16667,0,342.685)">
        <path d="M241.649,11.54C242.094,11.54 242.461,11.572 242.75,11.634L242.533,13.695C242.22,13.62 241.893,13.582 241.555,13.582C240.67,13.582 239.954,13.871 239.405,14.448C238.856,15.025 238.581,15.775 238.581,16.697L238.581,22.135L236.37,22.135L236.37,11.729L238.102,11.729L238.393,13.563L238.506,13.563C238.851,12.942 239.301,12.45 239.856,12.086C240.412,11.722 241.009,11.54 241.649,11.54Z" style="fill:rgb(0,115,125);fill-rule:nonzero;"/>
    </g>
    <g transform="matrix(4.16667,0,0,4.16667,0,343.469)">
        <path d="M251.382,21.947L250.94,20.498L250.865,20.498C250.363,21.132 249.858,21.563 249.35,21.792C248.842,22.021 248.19,22.135 247.393,22.135C246.37,22.135 245.572,21.859 244.998,21.307C244.424,20.755 244.137,19.974 244.137,18.964C244.137,17.892 244.536,17.082 245.332,16.537C246.129,15.991 247.343,15.693 248.974,15.643L250.771,15.586L250.771,15.031C250.771,14.366 250.616,13.869 250.305,13.54C249.995,13.211 249.513,13.046 248.861,13.046C248.328,13.046 247.816,13.124 247.327,13.281C246.838,13.438 246.367,13.623 245.916,13.836L245.201,12.256C245.765,11.961 246.383,11.737 247.054,11.583C247.725,11.429 248.359,11.352 248.955,11.352C250.278,11.352 251.277,11.641 251.952,12.218C252.626,12.795 252.963,13.701 252.963,14.937L252.963,21.947L251.382,21.947ZM248.089,20.442C248.892,20.442 249.537,20.217 250.023,19.769C250.509,19.32 250.752,18.691 250.752,17.882L250.752,16.979L249.416,17.035C248.375,17.073 247.617,17.247 247.144,17.558C246.67,17.868 246.433,18.343 246.433,18.983C246.433,19.447 246.571,19.806 246.847,20.061C247.123,20.315 247.537,20.442 248.089,20.442Z" style="fill:rgb(0,115,125);fill-rule:nonzero;"/>
    </g>
    <g transform="matrix(4.16667,0,0,4.16667,0,325.826)">
        <rect x="256.242" y="11.541" width="2.211" height="14.641" style="fill:rgb(0,115,125);"/>
    </g>
    <g transform="matrix(4.16667,0,0,4.16667,0,325.826)">
        <rect x="261.807" y="11.541" width="2.211" height="14.641" style="fill:rgb(0,115,125);"/>
    </g>
    <g transform="matrix(4.16667,0,0,4.16667,0,343.469)">
        <path d="M271.917,22.135C270.299,22.135 269.033,21.663 268.121,20.719C267.208,19.775 266.752,18.475 266.752,16.819C266.752,15.119 267.175,13.783 268.022,12.811C268.869,11.838 270.032,11.352 271.513,11.352C272.887,11.352 273.972,11.769 274.768,12.604C275.565,13.438 275.963,14.586 275.963,16.047L275.963,17.242L269.029,17.242C269.06,18.252 269.333,19.029 269.847,19.571C270.362,20.114 271.086,20.385 272.021,20.385C272.636,20.385 273.208,20.327 273.738,20.211C274.268,20.095 274.837,19.902 275.446,19.632L275.446,21.43C274.906,21.687 274.361,21.869 273.809,21.975C273.257,22.082 272.626,22.135 271.917,22.135ZM271.513,13.027C270.81,13.027 270.247,13.25 269.824,13.695C269.4,14.141 269.148,14.79 269.066,15.643L273.79,15.643C273.777,14.784 273.57,14.133 273.169,13.69C272.767,13.248 272.215,13.027 271.513,13.027Z" style="fill:rgb(0,115,125);fill-rule:nonzero;"/>
    </g>
    <g transform="matrix(4.16667,0,0,4.16667,0,325.826)">
        <rect x="278.668" y="11.541" width="2.211" height="14.641" style="fill:rgb(0,115,125);"/>
    </g>
    <g transform="matrix(4.16667,0,0,4.16667,0,329.276)">
        <path d="M298.201,25.353L296.828,21.533L291.568,21.533L290.222,25.353L287.851,25.353L292.998,11.541L295.444,11.541L300.591,25.353L298.201,25.353ZM296.235,19.595L294.946,15.85C294.852,15.599 294.722,15.204 294.555,14.664C294.389,14.125 294.275,13.73 294.212,13.479C294.043,14.25 293.795,15.094 293.469,16.01L292.227,19.595L296.235,19.595Z" style="fill:rgb(0,115,125);fill-rule:nonzero;"/>
    </g>
    <g transform="matrix(4.16667,0,0,4.16667,0,329.512)">
        <path d="M311.708,15.699C311.708,17.136 311.238,18.237 310.297,19.002C309.356,19.767 308.017,20.15 306.279,20.15L304.849,20.15L304.849,25.297L302.6,25.297L302.6,11.54L306.561,11.54C308.28,11.54 309.567,11.892 310.424,12.594C311.28,13.297 311.708,14.332 311.708,15.699ZM304.849,18.259L306.044,18.259C307.198,18.259 308.045,18.058 308.584,17.656C309.124,17.255 309.393,16.628 309.393,15.775C309.393,14.984 309.152,14.395 308.669,14.006C308.186,13.617 307.433,13.422 306.411,13.422L304.849,13.422L304.849,18.259Z" style="fill:rgb(0,115,125);fill-rule:nonzero;"/>
    </g>
    <g transform="matrix(4.16667,0,0,4.16667,0,329.512)">
        <rect x="314.648" y="11.541" width="2.249" height="13.756" style="fill:rgb(0,115,125);"/>
    </g>
    <g transform="matrix(4.16667,0,0,4.16667,0,89.2938)">
        <path d="M292.15,46.917L292.607,46.917C292.651,46.917 292.76,46.895 292.891,46.874C292.958,46.852 293.024,46.83 293.067,46.764C293.111,46.699 293.133,46.633 293.133,46.568C293.133,46.459 293.089,46.371 293.024,46.306C292.958,46.24 292.825,46.219 292.629,46.219L292.172,46.219L292.172,46.917L292.15,46.917ZM291.08,48.97L291.08,45.52L292.847,45.52C293.176,45.52 293.437,45.541 293.612,45.607C293.786,45.673 293.919,45.76 294.028,45.913C294.137,46.066 294.18,46.262 294.18,46.481C294.18,46.677 294.137,46.83 294.05,46.983C293.963,47.136 293.854,47.245 293.721,47.31C293.633,47.376 293.503,47.419 293.35,47.441C293.481,47.485 293.568,47.529 293.633,47.572C293.677,47.594 293.721,47.66 293.808,47.747C293.875,47.834 293.941,47.922 293.963,47.965L294.485,48.97L293.285,48.97L292.716,47.922C292.651,47.791 292.586,47.703 292.52,47.66C292.433,47.616 292.346,47.572 292.259,47.572L292.172,47.572L292.172,48.97L291.08,48.97Z" style="fill:rgb(0,115,125);fill-rule:nonzero;"/>
    </g>
    <g transform="matrix(4.16667,0,0,4.16667,0,90.0217)">
        <path d="M292.607,44.275C291.013,44.275 289.725,45.563 289.725,47.157C289.725,48.751 291.013,50.04 292.607,50.04C294.202,50.04 295.49,48.751 295.49,47.157C295.511,45.563 294.202,44.275 292.607,44.275ZM292.607,50.913C290.534,50.913 288.852,49.232 288.852,47.157C288.852,45.083 290.534,43.402 292.607,43.402C294.681,43.402 296.363,45.083 296.363,47.157C296.363,49.232 294.681,50.913 292.607,50.913Z" style="fill:rgb(0,115,125);fill-rule:nonzero;"/>
    </g>
    <g transform="matrix(4.16667,0,0,4.16667,0,182.187)">
        <rect x="12.781" y="33.182" width="54.743" height="5.83" style="fill:rgb(0,115,125);"/>
    </g>
    <g transform="matrix(4.16667,0,0,4.16667,0,182.187)">
        <rect x="84.272" y="33.182" width="232.791" height="5.83" style="fill:rgb(0,115,125);"/>
    </g>
    <g transform="matrix(4.16667,0,0,4.16667,0,-129.155)">
        <path d="M20.707,74.365C20.707,81.33 22.585,86.811 26.319,90.829C30.075,94.847 34.77,96.834 40.403,96.834C46.168,96.834 50.906,94.803 54.619,90.763C58.331,86.724 60.187,80.981 60.187,73.535C60.187,68.84 59.401,64.713 57.806,61.22C56.212,57.704 53.898,54.996 50.819,53.053C47.762,51.131 44.312,50.149 40.513,50.149C35.097,50.149 30.446,52.005 26.538,55.717C22.673,59.473 20.707,65.674 20.707,74.365ZM12.825,74.256C12.825,64.67 15.401,57.158 20.554,51.721C25.708,46.284 32.346,43.576 40.513,43.576C45.841,43.576 50.666,44.843 54.946,47.398C59.226,49.952 62.501,53.512 64.75,58.054C67,62.617 68.113,67.792 68.113,73.557C68.113,79.409 66.934,84.671 64.576,89.279C62.217,93.908 58.855,97.402 54.531,99.782C50.186,102.162 45.513,103.341 40.491,103.341C35.053,103.341 30.184,102.031 25.904,99.389C21.625,96.768 18.371,93.165 16.165,88.624C13.938,84.147 12.825,79.321 12.825,74.256Z" style="fill:rgb(0,115,125);fill-rule:nonzero;"/>
    </g>
    <g transform="matrix(4.16667,0,0,4.16667,0,0.585833)">
        <path d="M78.791,50.564C78.791,55.957 79.883,59.931 82.066,62.508C84.25,65.085 86.892,66.373 89.993,66.373C93.137,66.373 95.845,65.041 98.094,62.377C100.343,59.713 101.456,55.586 101.456,49.974C101.456,44.646 100.365,40.65 98.159,37.986C95.954,35.322 93.334,34.012 90.298,34.012C87.285,34.012 84.599,35.432 82.285,38.248C79.948,41.065 78.791,45.192 78.791,50.564ZM72.371,87.313L72.371,29.405L78.835,29.405L78.835,34.842C80.363,32.702 82.088,31.108 84.01,30.06C85.931,28.99 88.246,28.466 90.997,28.466C94.578,28.466 97.723,29.383 100.452,31.217C103.182,33.052 105.256,35.65 106.632,39.013C108.029,42.353 108.728,46.044 108.728,50.04C108.728,54.32 107.963,58.184 106.413,61.613C104.863,65.041 102.636,67.661 99.71,69.495C96.784,71.33 93.705,72.225 90.473,72.225C88.115,72.225 85.975,71.723 84.097,70.718C82.219,69.714 80.669,68.447 79.468,66.941L79.468,87.313L72.371,87.313Z" style="fill:rgb(0,115,125);fill-rule:nonzero;"/>
    </g>
    <g transform="matrix(4.16667,0,0,4.16667,0,-62.2829)">
        <path d="M119.165,61.394L142.552,61.394C142.246,57.879 141.351,55.236 139.866,53.468C137.595,50.738 134.669,49.363 131.066,49.363C127.812,49.363 125.061,50.455 122.855,52.638C120.628,54.821 119.406,57.748 119.165,61.394ZM142.464,72.88L149.801,73.797C148.644,78.077 146.504,81.396 143.381,83.776C140.259,86.134 136.263,87.313 131.394,87.313C125.28,87.313 120.41,85.435 116.829,81.658C113.248,77.88 111.457,72.596 111.457,65.783C111.457,58.73 113.27,53.271 116.895,49.384C120.519,45.498 125.236,43.554 131,43.554C136.59,43.554 141.176,45.454 144.713,49.275C148.251,53.097 150.041,58.446 150.041,65.368C150.041,65.783 150.019,66.416 149.998,67.268L118.772,67.268C119.034,71.875 120.344,75.391 122.681,77.837C125.017,80.282 127.943,81.505 131.437,81.505C134.036,81.505 136.263,80.828 138.097,79.452C139.931,78.055 141.372,75.871 142.464,72.88Z" style="fill:rgb(0,115,125);fill-rule:nonzero;"/>
    </g>
    <g transform="matrix(4.16667,0,0,4.16667,0,-66.2858)">
        <path d="M153.775,87.313L153.775,45.454L160.151,45.454L160.151,51.415C163.23,46.808 167.663,44.515 173.471,44.515C176.004,44.515 178.319,44.974 180.437,45.869C182.555,46.786 184.127,47.965 185.197,49.428C186.245,50.891 186.988,52.638 187.402,54.669C187.665,55.979 187.796,58.293 187.796,61.569L187.796,87.313L180.699,87.313L180.699,61.853C180.699,58.97 180.415,56.808 179.869,55.367C179.323,53.926 178.341,52.791 176.921,51.939C175.524,51.088 173.864,50.651 171.965,50.651C168.951,50.651 166.331,51.612 164.147,53.533C161.942,55.455 160.85,59.101 160.85,64.451L160.85,87.313L153.775,87.313Z" style="fill:rgb(0,115,125);fill-rule:nonzero;"/>
    </g>
    <g transform="matrix(4.16667,0,0,4.16667,0,-135.617)">
        <path d="M193.735,44.515L217.907,44.515L227.231,80.676L236.489,44.515L260.641,44.515L260.641,103.953L245.595,103.953L245.595,58.622L233.979,103.953L220.353,103.953L208.78,58.622L208.78,103.953L193.735,103.953L193.735,44.515Z" style="fill:rgb(0,115,125);fill-rule:nonzero;"/>
    </g>
    <g transform="matrix(4.16667,0,0,4.16667,0,-135.709)">
        <path d="M284.965,69.867L289.464,69.867C293.002,69.867 295.49,69.256 296.932,68.033C298.372,66.81 299.071,65.238 299.071,63.317C299.071,61.46 298.459,59.867 297.215,58.578C295.971,57.29 293.633,56.635 290.207,56.635L284.965,56.635L284.965,69.867ZM266.514,44.537L297.041,44.537C303.7,44.537 308.678,46.11 311.976,49.276C315.296,52.442 316.932,56.941 316.932,62.771C316.932,68.776 315.12,73.47 311.519,76.833C307.916,80.218 302.391,81.899 294.989,81.899L284.965,81.899L284.965,103.953L266.514,103.953L266.514,44.537Z" style="fill:rgb(0,115,125);fill-rule:nonzero;"/>
    </g>
</svg>
